<?xml version="1.0" encoding="utf-8"?>
<!-- Generator: Adobe Illustrator 21.0.2, SVG Export Plug-In . SVG Version: 6.00 Build 0)  -->
<svg version="1.1" xmlns="http://www.w3.org/2000/svg" xmlns:xlink="http://www.w3.org/1999/xlink" x="0px" y="0px"
	 viewBox="0 0 708 251.7" style="enable-background:new 0 0 708 251.7;" xml:space="preserve">
<style type="text/css">
	.st0{fill:#231F20;}
	.st1{fill:#443999;}
	.st2{fill:url(#SVGID_1_);}
	.st3{fill:url(#SVGID_2_);}
	.st4{fill:#F4F3F8;}
	.st5{display:none;}
	.st6{display:inline;fill:none;stroke:#BCBEC0;stroke-miterlimit:10;}
	.st7{fill:none;stroke:#231F20;stroke-width:15;stroke-miterlimit:10;}
	.st8{fill:#FFFFFF;}
</style>
<g id="Layer_1">
</g>
<g id="Layer_4">
</g>
<g id="Layer_3" class="st5">
</g>
<g id="Layer_2">
	<g>
		<polygon class="st1" points="0,165.2 61.8,1.2 95.4,27 123.1,130.7 111.4,165.2 61.6,102 99.3,120 86.1,58.2 70.6,44.5 32.1,139 
					"/>
		<path class="st1" d="M216.5,0l-15,10v64.8c-1.8-0.2-3.7-0.3-5.6-0.3c-30.2,0-54.8,20.4-54.8,45.4s24.6,45.4,54.8,45.4
			c4.3,0,20.6,0,20.6,0V0z M156.2,119.9c0-16.7,17.8-30.4,39.8-30.4c1.9,0,3.7,0.1,5.6,0.3v60.1c-1.8,0.2-3.7,0.3-5.6,0.3
			C174,150.2,156.2,136.6,156.2,119.9z"/>
		<path class="st1" d="M356.3,74.5c0,0-15.7,0-20.7,0c-30.2,0-54.8,20.4-54.8,45.4s24.6,45.4,54.8,45.4c4.3,0,20.7,0,20.7,0V74.5z
			 M295.8,119.9c0-16.7,17.8-30.4,39.8-30.4c1.9,0,3.8,0.1,5.7,0.3v60.1c-1.9,0.2-3.8,0.3-5.7,0.3
			C313.7,150.2,295.8,136.6,295.8,119.9z"/>
		<g>
			<path class="st1" d="M225.7,251.7l-7.1-15.8l19.4-26.6c2.3-3.1,4.4-9.8,4.4-13.7V83h15v112.6c0,7.1-3.1,16.8-7.3,22.5
				L225.7,251.7z"/>
			<rect x="242.5" y="42.5" class="st1" width="15" height="20"/>
		</g>
		<path class="st1" d="M429.1,165.2c-30.2,0-54.8-20.4-54.8-45.4s24.6-45.4,54.8-45.4c5,0,10,0.6,14.8,1.7l-8.6,13.7
			c0,0-4.1-0.4-6.1-0.4c-21.9,0-39.8,13.6-39.8,30.4s17.8,30.4,39.8,30.4c1.9,0,5.8-0.3,5.8-0.3l9,13.7
			C439.1,164.7,434.1,165.2,429.1,165.2z"/>
		<path class="st1" d="M508,165.2c-30.2,0-54.8-20.4-54.8-45.4c0-18.8,13.8-45.4,44.4-45.4c30.2,0,54.8,20.4,54.8,45.4v7.5h-82.9
			c4.4,13.1,20,22.9,38.5,22.9c12.5,0,24-4.4,31.6-12l10.6,10.6C539.8,159.2,524.4,165.2,508,165.2z M469.2,112.4h67
			c-4.4-13.1-20-22.9-38.5-22.9C480.5,89.5,471.9,101.5,469.2,112.4z"/>
		<path class="st1" d="M690.1,138c-2.5-1.7-5-6.4-5-9.3v-44H708l-10-15h-12.8V45.9l-15-10v92.8c0,8,5,17.4,11.6,21.8l22,14.8
			l0.4-17.5L690.1,138z"/>
		<path class="st1" d="M646.9,165.2h-15v-51.6c0-2.3-2.2-5.4-4.4-6.1l-40.9-14v71.8h-15V72.4l60.8,20.8c8.3,2.8,14.5,11.6,14.5,20.3
			V165.2z"/>
	</g>
</g>
</svg>
