<svg id="Layer_1" data-name="Layer 1" xmlns="http://www.w3.org/2000/svg" viewBox="0 0 730.06 284.56"><defs><style>.cls-1,.cls-3{fill:#453d98;}.cls-2,.cls-4,.cls-5{fill:none;}.cls-2,.cls-3{stroke:#463f98;stroke-width:7px;}.cls-2,.cls-3,.cls-4,.cls-5{stroke-miterlimit:10;}.cls-4{stroke:#662d91;}.cls-5{stroke:#3a4197;}</style></defs><title>adjacent lettering aug. 29</title><g id="Layer_2" data-name="Layer 2"><path class="cls-1" d="M522.5,274c0-1.1-.75-1.5-1.66-.89l-11.67,7.78A4.19,4.19,0,0,0,507.5,284v74.8a1.82,1.82,0,0,1-2,1.84s-1.71-.14-3.61-.14c-30.2,0-54.8,20.4-54.8,45.4s24.6,45.4,54.8,45.4h18.6a2,2,0,0,0,2-2ZM462.2,405.9c0-16.7,17.8-30.4,39.8-30.4,1.27,0,2.49,0,3.73.13a2,2,0,0,1,1.87,2v56.44a2,2,0,0,1-1.86,2c-1.23.09-2.48.13-3.74.13C480,436.2,462.2,422.6,462.2,405.9Z" transform="translate(-285.7 -265.62)"/><path class="cls-2" d="M522.5,274c0-1.1-.75-1.5-1.66-.89l-11.67,7.78A4.19,4.19,0,0,0,507.5,284v74.8a1.82,1.82,0,0,1-2,1.84s-1.71-.14-3.61-.14c-30.2,0-54.8,20.4-54.8,45.4s24.6,45.4,54.8,45.4h18.6a2,2,0,0,0,2-2ZM462.2,405.9c0-16.7,17.8-30.4,39.8-30.4,1.27,0,2.49,0,3.73.13a2,2,0,0,1,1.87,2v56.44a2,2,0,0,1-1.86,2c-1.23.09-2.48.13-3.74.13C480,436.2,462.2,422.6,462.2,405.9Z" transform="translate(-285.7 -265.62)"/><path class="cls-1" d="M662.3,362.5a2,2,0,0,0-2-2H641.6c-30.2,0-54.8,20.4-54.8,45.4s24.6,45.4,54.8,45.4h18.7a2,2,0,0,0,2-2Zm-60.5,43.4c0-16.7,17.8-30.4,39.8-30.4q1.94,0,3.87.14a2,2,0,0,1,1.83,2v56.44a2,2,0,0,1-1.83,2q-1.94.14-3.87.14C619.7,436.2,601.8,422.6,601.8,405.9Z" transform="translate(-285.7 -265.62)"/><path class="cls-2" d="M662.3,362.5a2,2,0,0,0-2-2H641.6c-30.2,0-54.8,20.4-54.8,45.4s24.6,45.4,54.8,45.4h18.7a2,2,0,0,0,2-2Zm-60.5,43.4c0-16.7,17.8-30.4,39.8-30.4q1.94,0,3.87.14a2,2,0,0,1,1.83,2v56.44a2,2,0,0,1-1.83,2q-1.94.14-3.87.14C619.7,436.2,601.8,422.6,601.8,405.9Z" transform="translate(-285.7 -265.62)"/><path class="cls-1" d="M522,546.15c-.69.85-1.27.65-1.27-.45l-.08-15.8a7.23,7.23,0,0,1,1.16-3.62l21.07-29.35a24,24,0,0,0,2-3.45l3.19-9.91a24.63,24.63,0,0,0,.39-4V371a2,2,0,0,1,2-2h11a2,2,0,0,1,2,2V479.6a26.42,26.42,0,0,1-.36,4L557,502.29a20.07,20.07,0,0,1-2.12,3.36Z" transform="translate(-285.7 -265.62)"/><path class="cls-2" d="M522,546.15c-.69.85-1.27.65-1.27-.45l-.08-15.8a7.23,7.23,0,0,1,1.16-3.62l21.07-29.35a24,24,0,0,0,2-3.45l3.19-9.91a24.63,24.63,0,0,0,.39-4V371a2,2,0,0,1,2-2h11a2,2,0,0,1,2,2V479.6a26.42,26.42,0,0,1-.36,4L557,502.29a20.07,20.07,0,0,1-2.12,3.36Z" transform="translate(-285.7 -265.62)"/><rect class="cls-1" x="262.8" y="62.88" width="15" height="20" rx="2" ry="2"/><rect class="cls-2" x="262.8" y="62.88" width="15" height="20" rx="2" ry="2"/><path class="cls-1" d="M735.1,451.2c-30.2,0-54.8-20.4-54.8-45.4s24.6-45.4,54.8-45.4a96.71,96.71,0,0,1,12.83,1.36,1.25,1.25,0,0,1,.91,2l-6.47,10.31a3.55,3.55,0,0,1-3.05,1.5s-2.11-.21-4.11-.21c-21.9,0-39.8,13.6-39.8,30.4s17.8,30.4,39.8,30.4c1.9,0,3.81-.15,3.81-.15a3.75,3.75,0,0,1,3.09,1.52l6.8,10.36a1.2,1.2,0,0,1-.88,2A104.75,104.75,0,0,1,735.1,451.2Z" transform="translate(-285.7 -265.62)"/><path class="cls-2" d="M735.1,451.2c-30.2,0-54.8-20.4-54.8-45.4s24.6-45.4,54.8-45.4a96.71,96.71,0,0,1,12.83,1.36,1.25,1.25,0,0,1,.91,2l-6.47,10.31a3.55,3.55,0,0,1-3.05,1.5s-2.11-.21-4.11-.21c-21.9,0-39.8,13.6-39.8,30.4s17.8,30.4,39.8,30.4c1.9,0,3.81-.15,3.81-.15a3.75,3.75,0,0,1,3.09,1.52l6.8,10.36a1.2,1.2,0,0,1-.88,2A104.75,104.75,0,0,1,735.1,451.2Z" transform="translate(-285.7 -265.62)"/><path class="cls-3" d="M814,451.2c-30.2,0-54.8-20.4-54.8-45.4,0-18.8,13.8-45.4,44.4-45.4,30.2,0,54.8,20.4,54.8,45.4v5.5a2,2,0,0,1-2,2H778.48a2,2,0,0,0-1.81,2.88c5.58,11.63,20.21,20,37.33,20,11.78,0,19.67,1.09,27.25-5.72a2,2,0,0,1,2.72.09l10.78,2.78a2,2,0,0,1-.08,2.91C844.33,445.76,829.62,451.2,814,451.2Zm-36.14-52.8h61.36a2,2,0,0,0,1.81-2.88c-5.58-11.63-20.21-20-37.33-20-15.84,0-24.39,10.18-27.75,20.3A2,2,0,0,0,777.86,398.4Z" transform="translate(-285.7 -265.62)"/><path class="cls-3" d="M996.1,427c-2.5-1.7-5-6.4-5-9.3v-44h19.16a2,2,0,0,0,1.66-3.11l-7.33-11a2,2,0,0,0-1.66-.89H991.2V312a2,2,0,0,0-.89-1.66l-11-7.33a2,2,0,0,0-3.11,1.66V417.7c0,8,5,17.4,11.6,21.8l19,12.76a2,2,0,0,0,3.12-1.61l.29-12.77a2,2,0,0,0-.86-1.69Z" transform="translate(-285.7 -265.62)"/><path class="cls-3" d="M952.9,451.2h-13a2,2,0,0,1-2-2V399.6a7.44,7.44,0,0,0-4.4-6.1l-38.25-13.09a2,2,0,0,0-2.65,1.89v67a2,2,0,0,1-2,2h-11a2,2,0,0,1-2-2V361.2a2,2,0,0,1,2.65-1.89L938.4,379.2c8.3,2.8,14.5,11.6,14.5,20.3v51.7Z" transform="translate(-285.7 -265.62)"/></g><path class="cls-4" d="M889.84,763" transform="translate(-285.7 -265.62)"/><path class="cls-4" d="M307.92,422.52" transform="translate(-285.7 -265.62)"/><path class="cls-5" d="M414.64,421.44" transform="translate(-285.7 -265.62)"/><path class="cls-5" d="M303.82,421.44" transform="translate(-285.7 -265.62)"/><path class="cls-1" d="M430.6,419.39l-13.25,35.08a1.54,1.54,0,0,1-2.93-.2L371.21,277.89c-.65-2.67.57-3.46,2.72-1.74L393,291.33a17.88,17.88,0,0,1,5.22,7.94l32.39,119.19A1.51,1.51,0,0,1,430.6,419.39Z" transform="translate(-285.7 -265.62)"/><path class="cls-1" d="M411.7,352.05,346.52,296a1.51,1.51,0,0,1-.43-1.69l11.17-28a4.23,4.23,0,0,1,2.53-.62L396,293.38a6.07,6.07,0,0,1,2.15,3.23l14.58,54.83C413,352.5,412.53,352.78,411.7,352.05Z" transform="translate(-285.7 -265.62)"/><path class="cls-1" d="M317.44,431.26l-26.53,21.82c-2.48,2-6.14-.46-5-3.42l70.34-182a3.2,3.2,0,0,1,4.91-1.33l18.35,14.09a3.18,3.18,0,0,1,.64.64c.22.3-.05.11-.13.31L319.68,428.24A7.68,7.68,0,0,1,317.44,431.26Z" transform="translate(-285.7 -265.62)"/><path class="cls-4" d="M425,455.45" transform="translate(-285.7 -265.62)"/><path class="cls-1" d="M414.81,455.33l-52.63-55.91A5.82,5.82,0,0,1,362,392a4.42,4.42,0,0,1,4.78-1.54L430,418.85" transform="translate(-285.7 -265.62)"/><path class="cls-2" d="M795.5,265.67" transform="translate(-285.7 -265.62)"/><path class="cls-2" d="M307.92,265.67" transform="translate(-285.7 -265.62)"/></svg>